<?xml version="1.0" encoding="UTF-8"?>
<svg version="1.1" xmlns="http://www.w3.org/2000/svg" width="761" height="739">
<path d="M0 0 C251.13 0 502.26 0 761 0 C761 243.87 761 487.74 761 739 C509.87 739 258.74 739 0 739 C0 495.13 0 251.26 0 0 Z " fill="#FEFEFE" transform="translate(0,0)"/>
<path d="M0 0 C57.85485585 -0.47599084 117.24694005 3.61776632 166 39 C167.36923149 39.95190306 168.74048052 40.90090789 170.11328125 41.84765625 C183.44118005 51.07307503 195.55801106 61.17427057 207.27978516 72.35888672 C208.77826051 73.78845688 210.28491825 75.20944054 211.79296875 76.62890625 C218.60474761 83.20243529 224.3116049 90.46365481 230 98 C230.68835938 98.89332031 231.37671875 99.78664063 232.0859375 100.70703125 C241.55161853 113.28286461 249.32821517 126.96894423 256.10473633 141.14819336 C257.08066537 143.16685214 258.08961194 145.16714598 259.1015625 147.16796875 C260.92050807 150.79621032 262.46533797 154.47098843 263.93359375 158.25390625 C264.67600523 160.16568381 265.44078285 162.0688632 266.22265625 163.96484375 C269.66448594 172.47995145 271.95838669 181.07610824 274 190 C274.34367473 191.46225728 274.68742583 192.9244966 275.03125 194.38671875 C275.37619148 195.88253824 275.71996863 197.37862677 276.0625 198.875 C276.28788452 199.84312622 276.28788452 199.84312622 276.51782227 200.83081055 C277.05008385 203.21384536 277.52695168 205.60445341 278 208 C278.25515381 209.22178955 278.51030762 210.4435791 278.77319336 211.70239258 C281.12623041 223.69125554 281.49461609 235.48148488 281.44604492 247.67651367 C281.43751922 250.93016637 281.4664454 254.1820653 281.49804688 257.43554688 C281.54034918 270.50429609 280.16870643 282.34043163 277 295 C276.62627837 296.95469579 276.26647994 298.9122785 275.9375 300.875 C270.83091468 329.60509307 259.08894778 358.62763357 243 383 C242.31808594 384.03769531 241.63617187 385.07539063 240.93359375 386.14453125 C235.66055436 394.09911628 235.66055436 394.09911628 233.1640625 397.50390625 C232.34035156 398.64666016 232.34035156 398.64666016 231.5 399.8125 C230.77296875 400.78123047 230.77296875 400.78123047 230.03125 401.76953125 C228.51555747 405.04779047 228.6372057 407.41740626 229 411 C230.06832074 413.63386523 231.15001087 415.96298512 232.5 418.4375 C233.24117764 419.85661825 233.98205489 421.27589342 234.72265625 422.6953125 C235.10309082 423.41235352 235.48352539 424.12939453 235.87548828 424.86816406 C237.61126619 428.15883116 239.27608865 431.48382873 240.9375 434.8125 C241.42875366 435.79089844 241.42875366 435.79089844 241.92993164 436.7890625 C244.51780337 441.96606008 246.98403262 447.19576033 249.4375 452.4375 C252.77720872 459.57001817 256.32334047 466.56108686 260.08178711 473.48217773 C265.54732055 483.58437808 265.54732055 483.58437808 264 489 C257.05297591 489.5533028 251.80883292 488.43378961 245.296875 486.0703125 C241.12928274 484.71732639 236.94617044 483.96720959 232.63525391 483.21557617 C226.63098663 482.15380302 220.69347779 480.85982915 214.75 479.5 C213.80157227 479.28311523 212.85314453 479.06623047 211.87597656 478.84277344 C207.02617578 477.72411095 202.19398507 476.5583531 197.375 475.3125 C192.42396536 474.03875998 187.4527025 473.18583738 182.3984375 472.4296875 C180 472 180 472 178 471 C176.0682593 470.6347669 174.12942657 470.30649396 172.1875 470 C166.2285498 469.05248991 166.2285498 469.05248991 163.55078125 468.4375 C154.6428966 466.90965455 149.35171687 469.99183212 141.625 474.125 C132.72809334 478.73943111 124.02170315 482.79277526 114.48828125 485.8671875 C111.47376635 486.84614531 108.60143216 487.94850522 105.6875 489.1875 C100.27689566 491.40888952 94.68356196 492.67722727 89 494 C87.82308594 494.32613281 86.64617187 494.65226562 85.43359375 494.98828125 C79.76821132 496.40932786 73.98375342 496.93399059 68.1875 497.5625 C67.07568359 497.68818359 65.96386719 497.81386719 64.81835938 497.94335938 C61.54686347 498.30898589 58.27394156 498.65703975 55 499 C54.09258057 499.10078857 53.18516113 499.20157715 52.25024414 499.30541992 C44.52305146 500.10335597 36.82657153 500.19276086 29.0625 500.1875 C28.38257996 500.18722809 27.70265991 500.18695618 27.00213623 500.18667603 C9.72887687 500.15503817 -7.08252602 498.49616749 -24 495 C-25.23234375 494.74734375 -26.4646875 494.4946875 -27.734375 494.234375 C-48.18066138 489.56821006 -68.65525858 481.64820404 -87.1875 471.875 C-88.08605713 471.40126953 -88.98461426 470.92753906 -89.91040039 470.43945312 C-106.90037963 461.34288215 -122.36698966 450.341035 -136.5234375 437.265625 C-138.60079481 435.36520348 -140.71058269 433.5241514 -142.84375 431.6875 C-174.56525999 403.96536939 -197.66626795 363.95989129 -210 324 C-210.23348145 323.2579834 -210.46696289 322.5159668 -210.70751953 321.75146484 C-214.51542951 309.61325562 -217.00194823 297.96200947 -217.65625 285.203125 C-217.9184203 281.90873066 -217.9184203 281.90873066 -219.00268555 278.47241211 C-220.29339165 273.39739134 -220.30570654 268.45128367 -220.30078125 263.23828125 C-220.30506638 262.21179977 -220.3093515 261.1853183 -220.31376648 260.12773132 C-220.31949045 257.95682508 -220.32002435 255.78589966 -220.31567383 253.61499023 C-220.31255269 250.36732158 -220.33586196 247.12060056 -220.36132812 243.87304688 C-220.4017724 230.32434405 -219.3300315 217.34193549 -217 204 C-216.77436555 202.64955788 -216.54907878 201.29905761 -216.32421875 199.94848633 C-212.7450499 179.23282918 -205.29907835 158.93900617 -195.69140625 140.3046875 C-194.65930794 138.28816285 -193.65849547 136.25471047 -192.71484375 134.1953125 C-183.41280023 114.11200142 -168.83950964 96.31840569 -153.9375 80.12890625 C-152.08242459 78.09056734 -150.3187214 75.99850808 -148.5625 73.875 C-147.716875 72.92625 -146.87125 71.9775 -146 71 C-145.34 71 -144.68 71 -144 71 C-143.505 69.515 -143.505 69.515 -143 68 C-141.36786243 66.51988931 -139.66909811 65.11241282 -137.9375 63.75 C-133.68020943 60.36301492 -129.56799083 56.89081904 -125.55859375 53.21484375 C-124 52 -124 52 -122 52 C-122.54888944 54.78666946 -123.12577483 57.56087111 -123.74731445 60.33251953 C-125.56134573 68.92411328 -126.2365422 77.21135054 -126.23046875 85.9921875 C-126.23144562 87.03900696 -126.23242249 88.08582642 -126.23342896 89.16436768 C-126.22679424 93.4998458 -126.20439742 97.83399548 -126.1340332 102.16894531 C-125.82396297 124.18557263 -125.82396297 124.18557263 -132.93530273 131.92626953 C-133.61665283 132.61060059 -134.29800293 133.29493164 -135 134 C-135.94188988 135.31811921 -136.85156789 136.66035628 -137.71484375 138.03125 C-138.09060547 138.61390625 -138.46636719 139.1965625 -138.85351562 139.796875 C-139.21123047 140.35890625 -139.56894531 140.9209375 -139.9375 141.5 C-140.32228516 142.09296875 -140.70707031 142.6859375 -141.10351562 143.296875 C-142.74062342 145.85179895 -144.03582498 148.10747493 -145 151 C-145.66 151 -146.32 151 -147 151 C-147.09667969 151.52335938 -147.19335938 152.04671875 -147.29296875 152.5859375 C-148.24238495 155.8275906 -149.7599688 158.6263209 -151.3125 161.625 C-154.21220723 167.30765764 -156.76407619 173.0199585 -159 179 C-159.37898438 179.95712891 -159.37898438 179.95712891 -159.765625 180.93359375 C-167.3980067 200.46112352 -170.68208337 220.13672131 -171 241 C-171.03867188 242.75473633 -171.03867188 242.75473633 -171.078125 244.54492188 C-171.3972977 260.00085986 -171.30747374 274.8668682 -168 290 C-167.82307617 290.85384277 -167.64615234 291.70768555 -167.46386719 292.58740234 C-165.02702758 304.24761675 -161.93771507 315.13339427 -157 326 C-156.65340332 326.78310547 -156.30680664 327.56621094 -155.94970703 328.37304688 C-134.29337044 377.07881034 -95.18169665 417.48550419 -45.1875 437.3125 C-42.79743636 438.22361497 -40.40160664 439.11976124 -38 440 C-37.0733252 440.34587158 -37.0733252 440.34587158 -36.12792969 440.69873047 C-25.46490063 444.67734903 -15.23869164 447.26969012 -4 449 C-2.90913086 449.17225098 -1.81826172 449.34450195 -0.69433594 449.52197266 C8.96299503 450.93964849 18.43283478 451.3962809 28.1875 451.375 C28.95893341 451.37578552 29.73036682 451.37657104 30.525177 451.37738037 C46.74176864 451.35778076 64.8457629 451.17237185 80 445 C81.42058932 444.65613037 82.84960664 444.34511724 84.28515625 444.0703125 C88.87061565 443.09468284 93.09352356 441.61926154 97.4375 439.875 C98.20900391 439.56788086 98.98050781 439.26076172 99.77539062 438.94433594 C102.18853438 437.97457703 104.59489166 436.98950227 107 436 C108.13332764 435.53932129 108.13332764 435.53932129 109.28955078 435.06933594 C125.88352277 428.26432807 140.56867306 419.30036273 154.60766602 408.15161133 C155.27209717 407.62462646 155.93652832 407.0976416 156.62109375 406.5546875 C157.2030249 406.08530762 157.78495605 405.61592773 158.38452148 405.13232422 C160 404 160 404 163 403 C163 402.34 163 401.68 163 401 C164.29296875 399.73046875 164.29296875 399.73046875 166.1875 398.1875 C192.79880583 375.3711163 211.6486213 345.05263767 223 312 C223.23581787 311.32171143 223.47163574 310.64342285 223.71459961 309.94458008 C234.46466303 278.18663176 238.78357221 231.7248034 225.70727539 199.83300781 C224.50824287 196.72553935 223.86078816 193.492677 223.125 190.25 C220.02042095 177.32920857 214.13179803 165.71751456 208 154 C207.68691895 153.39897461 207.37383789 152.79794922 207.05126953 152.17871094 C198.57837524 136.11205802 187.22166856 122.22166856 174.41796875 109.41796875 C172.96856049 107.96856049 171.53629462 106.50122447 170.140625 105 C162.89651873 97.33681321 154.49482035 91.19002413 146 85 C145.37319336 84.53916016 144.74638672 84.07832031 144.10058594 83.60351562 C133.48588269 75.88058308 121.99061533 70.2766601 110 65 C109.04601318 64.57807373 108.09202637 64.15614746 107.10913086 63.72143555 C100.17362335 60.73488307 93.22871012 58.38989373 85.9375 56.4375 C84.83567383 56.13432861 83.73384766 55.83115723 82.59863281 55.51879883 C76.5894019 53.94021031 70.6921821 52.74569755 64.51953125 52.015625 C62.6953064 51.79821655 62.6953064 51.79821655 60.83422852 51.57641602 C58.49655388 51.32276056 56.15393371 51.11029252 53.80834961 50.94506836 C46.01760549 50.12601273 46.01760549 50.12601273 42.97412109 46.75830078 C41.437248 44.22336204 40.17969926 41.71666186 39 39 C35.64373688 32.73497551 31.60845014 27.41602616 27 22 C26.47792969 21.37996094 25.95585937 20.75992188 25.41796875 20.12109375 C20.80601481 15.08880983 15.16175392 11.67851546 9.40234375 8.11328125 C8.26807297 7.40910571 7.1339572 6.7046804 6 6 C5.41621582 5.64083496 4.83243164 5.28166992 4.23095703 4.91162109 C2.78538653 3.99441106 1.38738253 3.00305434 0 2 C0 1.34 0 0.68 0 0 Z " fill="#020101" transform="translate(353,105)"/>
<path d="M0 0 C1.75555408 1.31977824 3.48801327 2.67126688 5.1875 4.0625 C5.91839844 4.61679688 6.64929688 5.17109375 7.40234375 5.7421875 C20.50234924 16.25236465 29.61357938 33.60498019 32.1875 50.0625 C33.08666586 60.97137874 32.92468938 71.95410183 32.89205909 82.89195657 C32.88485717 86.30904432 32.89347349 89.7260222 32.90196449 93.14310139 C32.92180645 101.20756511 32.91646827 109.27173154 32.89428711 117.33618164 C32.87188136 125.62254024 32.88959772 133.90812138 32.92733639 142.19440681 C32.95865806 149.34822865 32.96646151 156.50181094 32.95538265 163.65569276 C32.94893014 167.91155738 32.95073256 172.16697307 32.97470665 176.42278481 C32.99609387 180.42143313 32.98780818 184.41898921 32.95761299 188.41757011 C32.95133442 189.87512586 32.95502701 191.3327682 32.97002411 192.79026031 C33.06691017 203.04508776 31.53473152 211.75870985 24.71415234 219.79941273 C18.51517856 225.41172542 12.20834526 226.65456188 4.1171875 226.40234375 C-3.41871313 225.52817928 -7.60869245 221.72842899 -12.3671875 216.0625 C-16.68064662 210.09360522 -16.93545511 203.81164091 -16.94380188 196.57997131 C-16.94781006 195.31978683 -16.95181824 194.05960236 -16.95594788 192.76123047 C-16.9554729 191.38256834 -16.95493681 190.00390623 -16.9543457 188.62524414 C-16.95738098 187.15937699 -16.96090345 185.69351079 -16.96487427 184.22764587 C-16.97273422 181.08093729 -16.97789713 177.9342399 -16.98116493 174.78752327 C-16.98709906 169.80699865 -17.00366108 164.82654457 -17.02250671 159.84605408 C-17.02884319 158.1377459 -17.03516883 156.42943768 -17.04148388 154.72112942 C-17.04464969 153.86591131 -17.0478155 153.0106932 -17.05107725 152.1295594 C-17.09308557 140.54252127 -17.12613727 128.95551748 -17.13842773 117.3684082 C-17.14681565 109.5406702 -17.16932872 101.71310862 -17.2077834 93.88545889 C-17.22751043 89.74815878 -17.23995961 85.61112219 -17.23494911 81.47377205 C-17.23029296 77.58215596 -17.24416019 73.69103968 -17.27196121 69.79952431 C-17.27885533 68.37578217 -17.27901874 66.95198816 -17.27176094 65.52824783 C-17.23226027 56.90542895 -17.28181449 49.74222122 -23.59375 43.22265625 C-24.1609375 42.86042969 -24.728125 42.49820313 -25.3125 42.125 C-25.8796875 41.74472656 -26.446875 41.36445313 -27.03125 40.97265625 C-32.29976029 38.28063235 -39.29267021 37.99608317 -44.9140625 39.69921875 C-46.57578382 40.42401209 -48.19762878 41.23858611 -49.8125 42.0625 C-50.8025 42.3925 -51.7925 42.7225 -52.8125 43.0625 C-53.89681094 44.81117483 -53.89681094 44.81117483 -54.8125 47.0625 C-55.32040668 47.94078524 -55.82831335 48.81907047 -56.35161114 49.72397041 C-58.01924356 53.53496543 -58.22962729 56.71414102 -58.1867218 60.79147339 C-58.19268341 61.93000753 -58.19268341 61.93000753 -58.19876546 63.09154236 C-58.20835943 65.62486041 -58.19658806 68.15761594 -58.18481445 70.69091797 C-58.18724342 72.51131396 -58.19096375 74.33170862 -58.19587708 76.15209961 C-58.20527668 81.09021185 -58.19586768 86.02812555 -58.18254495 90.96622229 C-58.17121853 96.13813648 -58.17533897 101.31004107 -58.17729187 106.48196411 C-58.17817463 115.16916135 -58.16709961 123.85628053 -58.14868164 132.54345703 C-58.12752765 142.57840101 -58.12400145 152.61323053 -58.1302436 162.64819229 C-58.13594492 172.30923016 -58.13028167 181.97022784 -58.11907005 191.63125992 C-58.11443289 195.73871735 -58.11354642 199.84615013 -58.1156559 203.95360947 C-58.11754408 208.79469721 -58.10939414 213.63566903 -58.0935955 218.47673035 C-58.08936447 220.25040838 -58.08849413 222.0240982 -58.09128571 223.79777908 C-58.09452562 226.22516504 -58.08538041 228.65220856 -58.07319641 231.07955933 C-58.07697573 231.77588026 -58.08075506 232.47220119 -58.08464891 233.18962276 C-58.04089088 238.14254724 -57.12455441 242.32479069 -55.8125 247.0625 C-55.544375 248.3 -55.27625 249.5375 -55 250.8125 C-49.62182489 271.95286524 -35.10396599 290.05111349 -16.734375 301.3671875 C5.97737745 314.54486205 29.28710841 318.48876078 54.84326172 311.75146484 C77.47527255 305.09998238 95.85642055 289.95302501 107.8125 269.8125 C115.86899516 254.57343459 118.38369018 240.19126323 119.22265625 223.11523438 C119.72235864 215.41698908 121.00075911 209.69905918 126.15234375 203.8203125 C126.80332031 203.28148437 127.45429688 202.74265625 128.125 202.1875 C128.77339844 201.63320313 129.42179688 201.07890625 130.08984375 200.5078125 C136.07024574 196.38723757 142.14319129 196.32853137 149.1875 197.0625 C155.95025037 199.02947687 161.76672448 202.43583196 165.4375 208.5625 C173.0380936 223.7636872 168.65203699 249.10832964 163.79296875 264.8359375 C162.41204299 268.97871478 160.83871796 273.02031843 159.1875 277.0625 C158.85878906 277.89523437 158.53007812 278.72796875 158.19140625 279.5859375 C157.26864122 281.79237121 156.25139047 283.92039057 155.1875 286.0625 C154.67058594 287.14273437 154.15367187 288.22296875 153.62109375 289.3359375 C139.06160986 318.78992319 114.73129561 338.67849017 86 353.375 C85.09350708 353.84510498 85.09350708 353.84510498 84.16870117 354.32470703 C53.6749476 369.49254245 17.77267421 367.29689256 -14 358.125 C-15.94748926 357.46632853 -17.88550393 356.77891374 -19.8125 356.0625 C-20.89660156 355.66804688 -21.98070312 355.27359375 -23.09765625 354.8671875 C-39.46789321 348.40768024 -52.98397056 337.9076864 -65.8125 326.0625 C-66.57949219 325.37800781 -67.34648437 324.69351562 -68.13671875 323.98828125 C-83.40381565 309.7121521 -94.36424493 289.71232057 -100.8125 270.0625 C-101.1946732 268.92261975 -101.1946732 268.92261975 -101.58456707 267.75971162 C-105.98726975 254.43271326 -107.67470598 242.46536167 -107.52539062 228.4777832 C-107.52697808 226.52048884 -107.53119001 224.56319517 -107.53778076 222.60591125 C-107.54791605 217.3625377 -107.52125671 212.11996945 -107.48672676 206.87672448 C-107.45633142 201.358853 -107.45899554 195.84098499 -107.45739746 190.32304382 C-107.45005072 181.07468164 -107.42030024 171.82661978 -107.375 162.57836914 C-107.31706787 150.72755617 -107.29652821 138.87698312 -107.2876358 127.02604389 C-107.27966525 116.7944262 -107.25468243 106.56286003 -107.22694206 96.33127952 C-107.21877275 93.05989242 -107.21290752 89.78850711 -107.20735168 86.51711464 C-107.1975259 81.37457314 -107.17705289 76.2321749 -107.14847565 71.08970451 C-107.13947756 69.2088208 -107.13376374 67.32791792 -107.13166046 65.44701385 C-107.10020835 42.46624551 -101.763268 25.44568631 -85.5625 8.3125 C-63.28553027 -13.25677594 -26.14132048 -16.84735855 0 0 Z " fill="#020102" transform="translate(352.8125,127.9375)"/>
<path d="M0 0 C0.66 0.33 1.32 0.66 2 1 C-4.6 7.6 -11.2 14.2 -18 21 C-18.66 20.67 -19.32 20.34 -20 20 C-19.51789063 19.52949219 -19.03578125 19.05898437 -18.5390625 18.57421875 C-17.90742188 17.95160156 -17.27578125 17.32898438 -16.625 16.6875 C-15.99851563 16.07261719 -15.37203125 15.45773438 -14.7265625 14.82421875 C-12.81913393 12.91187472 -12.81913393 12.91187472 -11 10 C-10.34 10 -9.68 10 -9 10 C-8.67 9.01 -8.34 8.02 -8 7 C-6.15234375 5.17578125 -6.15234375 5.17578125 -3.9375 3.3125 C-3.20402344 2.68988281 -2.47054687 2.06726563 -1.71484375 1.42578125 C-1.14894531 0.95527344 -0.58304688 0.48476562 0 0 Z " fill="#1E1C1E" transform="translate(218,166)"/>
<path d="M0 0 C2.97 0 5.94 0 9 0 C7.68 0.33 6.36 0.66 5 1 C5.33 2.32 5.66 3.64 6 5 C4 4 2 3 0 2 C0 1.34 0 0.68 0 0 Z " fill="#626061" transform="translate(353,105)"/>
</svg>
